<svg width="584" height="178" viewBox="0 0 584 178" fill="none" xmlns="http://www.w3.org/2000/svg">
<path d="M165.208 78.329V118.46H151.74V54.76H166.027L185.319 91.615L204.611 54.76H218.17V118.46H204.702V78.329L188.595 108.905H181.315L165.208 78.329ZM228.785 105.083C228.785 96.802 235.974 90.341 247.258 90.341C252.172 90.341 256.267 91.615 259.27 93.708V91.706C259.27 85.336 254.811 81.969 248.623 81.969C241.525 81.969 236.884 85.609 236.884 85.609L231.515 76.418C231.515 76.418 238.34 70.503 250.898 70.503C264.275 70.503 272.556 78.42 272.556 91.797V118.46H262.273L261.181 114.456C257.905 117.55 252.9 119.37 246.894 119.37C235.61 119.37 228.785 113.364 228.785 105.083ZM242.071 104.537C242.071 108.086 245.438 110.998 250.716 110.998C256.358 110.998 259.725 108.086 259.725 104.537C259.725 100.988 256.358 98.076 250.716 98.076C245.438 98.076 242.071 100.988 242.071 104.537ZM314.624 71.413H327.819V118.46H316.08L315.443 111.18C312.167 116.458 306.525 119.37 299.973 119.37C289.963 119.37 282.319 112.454 282.319 100.078V71.413H295.514V95.801C295.514 103.718 299.518 107.176 304.705 107.176C310.165 107.176 314.624 103.718 314.624 95.346V71.413ZM336.67 105.083C336.67 96.802 343.859 90.341 355.143 90.341C360.057 90.341 364.152 91.615 367.155 93.708V91.706C367.155 85.336 362.696 81.969 356.508 81.969C349.41 81.969 344.769 85.609 344.769 85.609L339.4 76.418C339.4 76.418 346.225 70.503 358.783 70.503C372.16 70.503 380.441 78.42 380.441 91.797V118.46H370.158L369.066 114.456C365.79 117.55 360.785 119.37 354.779 119.37C343.495 119.37 336.67 113.364 336.67 105.083ZM349.956 104.537C349.956 108.086 353.323 110.998 358.601 110.998C364.243 110.998 367.61 108.086 367.61 104.537C367.61 100.988 364.243 98.076 358.601 98.076C353.323 98.076 349.956 100.988 349.956 104.537Z" fill="white"/>
<path d="M422.6 119.37C403.581 119.37 389.385 105.265 389.385 86.883C389.385 68.501 404.036 53.85 423.055 53.85C439.89 53.85 447.534 63.769 447.534 63.769L437.797 73.506C437.797 73.506 432.883 66.681 422.782 66.681C411.589 66.681 403.308 75.235 403.308 86.792C403.308 98.258 411.589 106.903 422.782 106.903C431.609 106.903 438.161 101.898 439.708 93.89H422.145V83.88H453.813C453.813 83.88 454.086 85.7 454.086 87.429C453.995 105.356 441.255 119.37 422.6 119.37ZM463.532 118.46V71.413H475.271L475.999 80.604C479.275 74.052 485.372 70.503 493.471 70.503L493.289 84.062H490.559C481.914 84.062 476.727 88.521 476.727 99.077V118.46H463.532ZM500.029 58.491C500.029 54.123 503.578 50.847 508.401 50.847C513.224 50.847 516.682 54.123 516.682 58.491C516.682 62.95 513.224 66.135 508.401 66.135C503.578 66.135 500.029 62.95 500.029 58.491ZM501.667 71.413H515.044V118.46H501.667V71.413ZM546.834 119.37C534.458 119.37 524.175 108.905 524.175 95.164C524.175 81.423 534.731 70.503 547.289 70.503C553.113 70.503 558.027 72.869 561.303 76.782V54.76H574.589V118.46H563.578L562.395 111.453C558.846 116.367 553.386 119.37 546.834 119.37ZM549.564 107.267C556.571 107.267 561.758 101.807 561.758 94.982C561.758 88.066 556.571 82.697 549.564 82.697C542.557 82.697 537.37 88.066 537.37 94.982C537.37 101.807 542.557 107.267 549.564 107.267Z" fill="white"/>
<path d="M422.6 119.37C403.581 119.37 389.385 105.265 389.385 86.883C389.385 68.501 404.036 53.85 423.055 53.85C439.89 53.85 447.534 63.769 447.534 63.769L437.797 73.506C437.797 73.506 432.883 66.681 422.782 66.681C411.589 66.681 403.308 75.235 403.308 86.792C403.308 98.258 411.589 106.903 422.782 106.903C431.609 106.903 438.161 101.898 439.708 93.89H422.145V83.88H453.813C453.813 83.88 454.086 85.7 454.086 87.429C453.995 105.356 441.255 119.37 422.6 119.37ZM463.532 118.46V71.413H475.271L475.999 80.604C479.275 74.052 485.372 70.503 493.471 70.503L493.289 84.062H490.559C481.914 84.062 476.727 88.521 476.727 99.077V118.46H463.532ZM500.029 58.491C500.029 54.123 503.578 50.847 508.401 50.847C513.224 50.847 516.682 54.123 516.682 58.491C516.682 62.95 513.224 66.135 508.401 66.135C503.578 66.135 500.029 62.95 500.029 58.491ZM501.667 71.413H515.044V118.46H501.667V71.413ZM546.834 119.37C534.458 119.37 524.175 108.905 524.175 95.164C524.175 81.423 534.731 70.503 547.289 70.503C553.113 70.503 558.027 72.869 561.303 76.782V54.76H574.589V118.46H563.578L562.395 111.453C558.846 116.367 553.386 119.37 546.834 119.37ZM549.564 107.267C556.571 107.267 561.758 101.807 561.758 94.982C561.758 88.066 556.571 82.697 549.564 82.697C542.557 82.697 537.37 88.066 537.37 94.982C537.37 101.807 542.557 107.267 549.564 107.267Z" fill="#4FA9FF"/>
<g clip-path="url(#clip0_400_175)">
<path d="M80.4293 111.443L79.8363 111.838L79.441 112.431L65.185 133.815L61.491 139.356H68.1504H92.3856C100.653 139.356 107.354 132.654 107.354 124.387V100.152V93.4927L101.813 97.1867L80.4293 111.443Z" stroke="#9CCEFF" stroke-width="7.128"/>
<path d="M12.1054 96.7254L7.56226 95.4274V100.152V124.387C7.56226 132.655 14.264 139.356 22.5311 139.356H46.7662H48.6737L49.7316 137.769L63.9876 116.385L66.696 112.323L62.0013 110.981L12.1054 96.7254Z" stroke="white" stroke-width="7.128"/>
<path d="M52.5745 42.6655L51.8016 39.9602H48.9881H23.6245C14.9725 39.9602 7.95874 46.974 7.95874 55.6259V80.9895V83.8031L10.664 84.5759L62.8831 99.4957L69.3387 101.34L67.4942 94.8846L52.5745 42.6655Z" stroke="#9CCEFF" stroke-width="7.62832"/>
<path d="M68.1499 39.5642H63.425L64.7231 44.1073L78.9791 94.0033L80.3204 98.6979L84.3829 95.9896L105.767 81.7336L107.354 80.6757V78.7682V54.533C107.354 46.266 100.652 39.5642 92.3851 39.5642H68.1499Z" stroke="#4FA9FF" stroke-width="7.128"/>
</g>
<defs>
<clipPath id="clip0_400_175">
<rect width="106.92" height="106.92" fill="white" transform="translate(4 36)"/>
</clipPath>
</defs>
</svg>
